Coordinates
version=1
nRows=49
nColumns=12
inDegrees=yes

Units are S.I. units (second, meters, Newtons, ...)
Angles are in degrees

endheader
time	SC_y	SC_z	SC_x	AC_y	AC_z	AC_x	GH_y	GH_z	GH_yy	EL_x	PS_y
       0.0              -59.25         0.2613           77.1          52.57         -19.82         -14.15          48.58           83.8          7.008          13.01          17.85
   0.03886              -59.25          0.265          77.09          52.57         -19.82         -14.15          48.56          83.79          7.009          13.03          17.87
   0.07772              -59.25         0.2689          77.09          52.57         -19.82         -14.15          48.54          83.79          7.009          13.05          17.89
    0.1166              -59.24          0.273          77.09          52.57         -19.81         -14.15          48.52          83.79           7.01          13.07          17.91
    0.1554              -59.24         0.2774          77.08          52.57         -19.81         -14.15           48.5          83.78          7.011          13.09          17.94
    0.1943              -59.24         0.2821          77.08          52.57          -19.8         -14.15          48.47          83.78          7.012          13.11          17.96
    0.2332              -59.24         0.2871          77.08          52.57          -19.8         -14.14          48.45          83.77          7.013          13.14          17.99
     0.272              -59.23         0.2925          77.07          52.58         -19.79         -14.14          48.42          83.76          7.014          13.16          18.02
    0.3109              -59.23         0.2982          77.07          52.58         -19.79         -14.14          48.39          83.76          7.015          13.19          18.05
    0.3498              -59.22         0.3044          77.06          52.58         -19.78         -14.14          48.36          83.75          7.016          13.22          18.08
    0.3886              -59.22          0.311          77.06          52.58         -19.77         -14.13          48.32          83.75          7.017          13.26          18.12
    0.4275              -59.22         0.3181          77.05          52.58         -19.76         -14.13          48.28          83.74          7.018          13.29          18.16
    0.4663              -59.21         0.3258          77.05          52.58         -19.76         -14.13          48.24          83.73           7.02          13.33           18.2
    0.5052              -59.21         0.3341          77.04          52.59         -19.75         -14.12           48.2          83.72          7.021          13.37          18.24
    0.5441               -59.2          0.343          77.03          52.59         -19.74         -14.12          48.15          83.71          7.023          13.42          18.29
    0.5829              -59.19         0.3527          77.03          52.59         -19.73         -14.12           48.1           83.7          7.024          13.47          18.34
    0.6218              -59.19         0.3633          77.02           52.6         -19.72         -14.11          48.05          83.69          7.026          13.52           18.4
    0.6607              -59.18         0.3748          77.01           52.6          -19.7         -14.11          47.99          83.68          7.028          13.58          18.46
    0.6995              -59.17         0.3874           77.0           52.6         -19.69          -14.1          47.92          83.67           7.03          13.64          18.53
    0.7384              -59.16         0.4012          76.99          52.61         -19.68          -14.1          47.85          83.65          7.033          13.71           18.6
    0.7772              -59.15         0.4163          76.98          52.61         -19.66         -14.09          47.77          83.63          7.036          13.79          18.68
    0.8161              -59.14         0.4329          76.97          52.62         -19.64         -14.08          47.69          83.62          7.039          13.87          18.77
     0.855              -59.13         0.4513          76.95          52.62         -19.62         -14.07          47.59           83.6          7.042          13.96          18.87
    0.8938              -59.12         0.4717          76.94          52.63          -19.6         -14.07          47.48          83.58          7.045          14.06          18.98
    0.9327               -59.1         0.4943          76.92          52.63         -19.58         -14.06          47.37          83.55          7.049          14.18          19.11
    0.9716              -59.09         0.5195           76.9          52.64         -19.55         -14.05          47.24          83.53          7.054           14.3          19.24
      1.01              -59.07         0.5478          76.88          52.65         -19.52         -14.03          47.09           83.5          7.059          14.45          19.39
     1.049              -59.05         0.5797          76.85          52.66         -19.49         -14.02          46.92          83.46          7.065          14.61          19.57
     1.088              -59.03         0.6156          76.83          52.67         -19.45         -14.01          46.74          83.43          7.071          14.79          19.76
     1.127               -59.0         0.6565           76.8          52.68         -19.41         -13.99          46.52          83.38          7.078          14.99          19.98
     1.166              -58.97         0.7031          76.76          52.69         -19.36         -13.97          46.28          83.33          7.086          15.23          20.23
     1.205              -58.94         0.7565          76.72          52.71          -19.3         -13.95           46.0          83.28          7.096          15.49          20.52
     1.244               -58.9         0.8183          76.67          52.72         -19.24         -13.92          45.68          83.21          7.107           15.8          20.85
     1.282              -58.85           0.89          76.62          52.75         -19.16         -13.89          45.31          83.14           7.12          16.16          21.24
     1.321               -58.8          0.974          76.55          52.77         -19.07         -13.86          44.87          83.05          7.135          16.58          21.69
      1.36              -58.73          1.073          76.48           52.8         -18.97         -13.82          44.36          82.94          7.152          17.08          22.22
     1.399              -58.66          1.191          76.39          52.83         -18.84         -13.77          43.74          82.82          7.173          17.67          22.86
     1.438              -58.57          1.332          76.28          52.87         -18.69         -13.71          43.01          82.67          7.198          18.38          23.62
     1.477              -58.46          1.502          76.15          52.92         -18.51         -13.64          42.12          82.49          7.228          19.23          24.54
     1.516              -58.33           1.71          75.99          52.98         -18.29         -13.55          41.04          82.27          7.265          20.28          25.66
     1.554              -58.16          1.968          75.79          53.05         -18.02         -13.44           39.7           82.0          7.311          21.57          27.05
     1.593              -57.96          2.288          75.55          53.14         -17.68         -13.31          38.03          81.67          7.368          23.18          28.78
     1.632               -57.7          2.692          75.24          53.26         -17.25         -13.14          35.93          81.24          7.439          25.21          30.95
     1.671              -57.37          3.206          74.85           53.4         -16.71         -12.93          33.26           80.7           7.53          27.78          33.72
      1.71              -56.95          3.863          74.34          53.59         -16.01         -12.66          29.84          80.01          7.647          31.08          37.26
     1.749              -56.42          4.706           73.7          53.83         -15.12          -12.3          25.45          79.12          7.797          35.31          41.81
     1.788              -55.73          5.784          72.87          54.14         -13.98         -11.86          19.84          77.99          7.988          40.72          47.62
     1.827              -54.86          7.138          71.84          54.52         -12.55         -11.29          12.79          76.57          8.228          47.52          54.92
     1.865              -53.81          8.789          70.58          54.99          -10.8         -10.61          4.201          74.83          8.521           55.8          63.82
